<?xml version="1.0" encoding="UTF-8" standalone="no"?>
<!DOCTYPE svg PUBLIC "-//W3C//DTD SVG 1.1//EN"
 "http://www.w3.org/Graphics/SVG/1.1/DTD/svg11.dtd">
<!-- Generated by graphviz version 6.0.2 (0)
 -->
<!-- Pages: 1 -->
<svg width="357pt" height="524pt"
 viewBox="0.00 0.00 356.76 524.00" xmlns="http://www.w3.org/2000/svg" xmlns:xlink="http://www.w3.org/1999/xlink">
<g id="graph0" class="graph" transform="scale(1 1) rotate(0) translate(4 520)">
<polygon fill="white" stroke="none" points="-4,4 -4,-520 352.76,-520 352.76,4 -4,4"/>
<!-- start -->
<g id="node1" class="node">
<title>start</title>
<polygon fill="none" stroke="black" points="136.38,-516 82.38,-516 82.38,-480 136.38,-480 136.38,-516"/>
<text text-anchor="middle" x="109.38" y="-494.3" font-family="Times,serif" font-size="14.00">start</text>
</g>
<!-- load -->
<g id="node2" class="node">
<title>load</title>
<polygon fill="none" stroke="black" points="146.38,-443 72.38,-443 72.38,-407 146.38,-407 146.38,-443"/>
<text text-anchor="middle" x="109.38" y="-421.3" font-family="Times,serif" font-size="14.00">load cache</text>
</g>
<!-- start&#45;&gt;load -->
<g id="edge1" class="edge">
<title>start&#45;&gt;load</title>
<path fill="none" stroke="black" d="M109.38,-479.81C109.38,-471.79 109.38,-462.05 109.38,-453.07"/>
<polygon fill="black" stroke="black" points="112.88,-453.03 109.38,-443.03 105.88,-453.03 112.88,-453.03"/>
</g>
<!-- d1 -->
<g id="node3" class="node">
<title>d1</title>
<polygon fill="none" stroke="black" points="109.38,-370 0.12,-352 109.38,-334 218.64,-352 109.38,-370"/>
<text text-anchor="middle" x="109.38" y="-348.3" font-family="Times,serif" font-size="14.00">force reset runner?</text>
</g>
<!-- load&#45;&gt;d1 -->
<g id="edge2" class="edge">
<title>load&#45;&gt;d1</title>
<path fill="none" stroke="black" d="M109.38,-406.81C109.38,-398.79 109.38,-389.05 109.38,-380.07"/>
<polygon fill="black" stroke="black" points="112.88,-380.03 109.38,-370.03 105.88,-380.03 112.88,-380.03"/>
</g>
<!-- choose -->
<g id="node4" class="node">
<title>choose</title>
<polygon fill="none" stroke="black" points="198.38,-196 44.38,-196 44.38,-160 198.38,-160 198.38,-196"/>
<text text-anchor="middle" x="121.38" y="-174.3" font-family="Times,serif" font-size="14.00">choose runner &amp; select it</text>
</g>
<!-- d1&#45;&gt;choose -->
<g id="edge3" class="edge">
<title>d1&#45;&gt;choose</title>
<path fill="none" stroke="black" d="M106.19,-334.36C102.71,-313.76 98.18,-277.66 102.38,-247 104.28,-233.15 108.26,-218.14 112.09,-205.76"/>
<polygon fill="black" stroke="black" points="115.48,-206.65 115.22,-196.05 108.81,-204.5 115.48,-206.65"/>
<text text-anchor="middle" x="111.88" y="-261.3" font-family="Times,serif" font-size="14.00">yes</text>
</g>
<!-- d2 -->
<g id="node5" class="node">
<title>d2</title>
<polygon fill="none" stroke="black" points="239.38,-283 130.12,-265 239.38,-247 348.64,-265 239.38,-283"/>
<text text-anchor="middle" x="239.38" y="-261.3" font-family="Times,serif" font-size="14.00">is dir in the cache?</text>
</g>
<!-- d1&#45;&gt;d2 -->
<g id="edge4" class="edge">
<title>d1&#45;&gt;d2</title>
<path fill="none" stroke="black" d="M130.27,-337.34C151.87,-323.22 185.79,-301.04 210.07,-285.16"/>
<polygon fill="black" stroke="black" points="212.09,-288.02 218.54,-279.62 208.26,-282.17 212.09,-288.02"/>
<text text-anchor="middle" x="188.38" y="-304.8" font-family="Times,serif" font-size="14.00">no</text>
</g>
<!-- cache_selected -->
<g id="node7" class="node">
<title>cache_selected</title>
<polygon fill="none" stroke="black" points="210.88,-109 31.88,-109 31.88,-73 210.88,-73 210.88,-109"/>
<text text-anchor="middle" x="121.38" y="-87.3" font-family="Times,serif" font-size="14.00">write selected runner to cache</text>
</g>
<!-- choose&#45;&gt;cache_selected -->
<g id="edge7" class="edge">
<title>choose&#45;&gt;cache_selected</title>
<path fill="none" stroke="black" d="M121.38,-159.8C121.38,-148.16 121.38,-132.55 121.38,-119.24"/>
<polygon fill="black" stroke="black" points="124.88,-119.18 121.38,-109.18 117.88,-119.18 124.88,-119.18"/>
</g>
<!-- d2&#45;&gt;choose -->
<g id="edge6" class="edge">
<title>d2&#45;&gt;choose</title>
<path fill="none" stroke="black" d="M220.16,-250.15C202.06,-237.11 174.6,-217.34 153.23,-201.94"/>
<polygon fill="black" stroke="black" points="155.23,-199.07 145.07,-196.07 151.14,-204.75 155.23,-199.07"/>
<text text-anchor="middle" x="194.38" y="-217.8" font-family="Times,serif" font-size="14.00">no</text>
</g>
<!-- use_runner -->
<g id="node6" class="node">
<title>use_runner</title>
<polygon fill="none" stroke="black" points="217.38,-36 143.38,-36 143.38,0 217.38,0 217.38,-36"/>
<text text-anchor="middle" x="180.38" y="-14.3" font-family="Times,serif" font-size="14.00">use runner</text>
</g>
<!-- d2&#45;&gt;use_runner -->
<g id="edge5" class="edge">
<title>d2&#45;&gt;use_runner</title>
<path fill="none" stroke="black" d="M240.64,-246.96C242.55,-212.71 243.78,-133.62 220.38,-73 216.37,-62.61 209.78,-52.45 203.11,-43.81"/>
<polygon fill="black" stroke="black" points="205.79,-41.56 196.75,-36.02 200.36,-45.98 205.79,-41.56"/>
<text text-anchor="middle" x="245.88" y="-130.8" font-family="Times,serif" font-size="14.00">yes</text>
</g>
<!-- cache_selected&#45;&gt;use_runner -->
<g id="edge8" class="edge">
<title>cache_selected&#45;&gt;use_runner</title>
<path fill="none" stroke="black" d="M135.66,-72.81C142.91,-64.09 151.84,-53.34 159.82,-43.75"/>
<polygon fill="black" stroke="black" points="162.53,-45.96 166.23,-36.03 157.15,-41.48 162.53,-45.96"/>
</g>
</g>
</svg>
